<mxfile host="Chrome" modified="2023-06-07T14:12:46.057Z" agent="Mozilla/5.0 (Macintosh; Intel Mac OS X 10_15_7) AppleWebKit/537.36 (KHTML, like Gecko) Chrome/101.0.0.0 Safari/537.36" version="21.2.7" etag="fAovagToHaDde3A_K6_p" type="device">
  <diagram id="SRvUbMCXtZPb0nSLb90t" name="第 1 页">
    <mxGraphModel dx="1434" dy="854" grid="1" gridSize="10" guides="1" tooltips="1" connect="1" arrows="1" fold="1" page="1" pageScale="1" pageWidth="827" pageHeight="1169" math="0" shadow="0">
      <root>
        <mxCell id="0" />
        <mxCell id="1" parent="0" />
        <mxCell id="4iNGwqaxPTd7bF_QZf95-2" value="&lt;p style=&quot;margin:0px;margin-top:4px;text-align:center;&quot;&gt;&lt;i&gt;&amp;lt;&amp;lt;Interface&amp;gt;&amp;gt;&lt;/i&gt;&lt;br&gt;&lt;b&gt;Subject(抽象主题)&lt;/b&gt;&lt;/p&gt;&lt;br&gt;&lt;hr size=&quot;1&quot;&gt;&lt;p style=&quot;margin:0px;margin-left:4px;&quot;&gt;+ Do() string&lt;/p&gt;" style="verticalAlign=top;align=left;overflow=fill;fontSize=12;fontFamily=Helvetica;html=1;whiteSpace=wrap;" vertex="1" parent="1">
          <mxGeometry x="550" y="150" width="180" height="90" as="geometry" />
        </mxCell>
        <mxCell id="4iNGwqaxPTd7bF_QZf95-10" style="edgeStyle=orthogonalEdgeStyle;rounded=0;orthogonalLoop=1;jettySize=auto;html=1;exitX=0.5;exitY=0;exitDx=0;exitDy=0;entryX=0.5;entryY=1;entryDx=0;entryDy=0;dashed=1;endArrow=block;endFill=0;endSize=16;" edge="1" parent="1" source="4iNGwqaxPTd7bF_QZf95-3" target="4iNGwqaxPTd7bF_QZf95-2">
          <mxGeometry relative="1" as="geometry" />
        </mxCell>
        <mxCell id="4iNGwqaxPTd7bF_QZf95-3" value="&lt;p style=&quot;margin:0px;margin-top:4px;text-align:center;&quot;&gt;&lt;b&gt;RealSubject(真实主题1)&lt;/b&gt;&lt;/p&gt;&lt;br&gt;&lt;hr size=&quot;1&quot;&gt;&lt;p style=&quot;margin:0px;margin-left:4px;&quot;&gt;+ Do() string&lt;/p&gt;" style="verticalAlign=top;align=left;overflow=fill;fontSize=12;fontFamily=Helvetica;html=1;whiteSpace=wrap;" vertex="1" parent="1">
          <mxGeometry x="414" y="330" width="180" height="90" as="geometry" />
        </mxCell>
        <mxCell id="4iNGwqaxPTd7bF_QZf95-11" style="edgeStyle=orthogonalEdgeStyle;rounded=0;orthogonalLoop=1;jettySize=auto;html=1;exitX=0.5;exitY=0;exitDx=0;exitDy=0;dashed=1;endArrow=block;endFill=0;endSize=16;" edge="1" parent="1" source="4iNGwqaxPTd7bF_QZf95-4">
          <mxGeometry relative="1" as="geometry">
            <mxPoint x="640" y="240" as="targetPoint" />
          </mxGeometry>
        </mxCell>
        <mxCell id="4iNGwqaxPTd7bF_QZf95-4" value="&lt;p style=&quot;margin:0px;margin-top:4px;text-align:center;&quot;&gt;&lt;b&gt;RealSubject(真实主题2)&lt;/b&gt;&lt;/p&gt;&lt;br&gt;&lt;hr size=&quot;1&quot;&gt;&lt;p style=&quot;margin:0px;margin-left:4px;&quot;&gt;+ Do() string&lt;/p&gt;" style="verticalAlign=top;align=left;overflow=fill;fontSize=12;fontFamily=Helvetica;html=1;whiteSpace=wrap;" vertex="1" parent="1">
          <mxGeometry x="660" y="330" width="180" height="90" as="geometry" />
        </mxCell>
        <mxCell id="4iNGwqaxPTd7bF_QZf95-5" value="Proxy(代理主题)" style="swimlane;fontStyle=1;align=center;verticalAlign=top;childLayout=stackLayout;horizontal=1;startSize=26;horizontalStack=0;resizeParent=1;resizeParentMax=0;resizeLast=0;collapsible=1;marginBottom=0;whiteSpace=wrap;html=1;" vertex="1" parent="1">
          <mxGeometry x="220" y="160" width="160" height="86" as="geometry" />
        </mxCell>
        <mxCell id="4iNGwqaxPTd7bF_QZf95-6" value="+ subject Subject" style="text;strokeColor=none;fillColor=none;align=left;verticalAlign=top;spacingLeft=4;spacingRight=4;overflow=hidden;rotatable=0;points=[[0,0.5],[1,0.5]];portConstraint=eastwest;whiteSpace=wrap;html=1;" vertex="1" parent="4iNGwqaxPTd7bF_QZf95-5">
          <mxGeometry y="26" width="160" height="26" as="geometry" />
        </mxCell>
        <mxCell id="4iNGwqaxPTd7bF_QZf95-7" value="" style="line;strokeWidth=1;fillColor=none;align=left;verticalAlign=middle;spacingTop=-1;spacingLeft=3;spacingRight=3;rotatable=0;labelPosition=right;points=[];portConstraint=eastwest;strokeColor=inherit;" vertex="1" parent="4iNGwqaxPTd7bF_QZf95-5">
          <mxGeometry y="52" width="160" height="8" as="geometry" />
        </mxCell>
        <mxCell id="4iNGwqaxPTd7bF_QZf95-8" value="+ Do() string" style="text;strokeColor=none;fillColor=none;align=left;verticalAlign=top;spacingLeft=4;spacingRight=4;overflow=hidden;rotatable=0;points=[[0,0.5,0,0,0],[0.5,1,0,0,0],[1,0.5,0,0,0]];portConstraint=eastwest;whiteSpace=wrap;html=1;" vertex="1" parent="4iNGwqaxPTd7bF_QZf95-5">
          <mxGeometry y="60" width="160" height="26" as="geometry" />
        </mxCell>
        <mxCell id="4iNGwqaxPTd7bF_QZf95-9" style="edgeStyle=orthogonalEdgeStyle;rounded=0;orthogonalLoop=1;jettySize=auto;html=1;exitX=1;exitY=0.5;exitDx=0;exitDy=0;entryX=0;entryY=0.5;entryDx=0;entryDy=0;dashed=1;endArrow=block;endFill=0;endSize=16;" edge="1" parent="1" source="4iNGwqaxPTd7bF_QZf95-6" target="4iNGwqaxPTd7bF_QZf95-2">
          <mxGeometry relative="1" as="geometry" />
        </mxCell>
        <mxCell id="4iNGwqaxPTd7bF_QZf95-12" style="edgeStyle=orthogonalEdgeStyle;rounded=0;orthogonalLoop=1;jettySize=auto;html=1;exitX=0.5;exitY=1;exitDx=0;exitDy=0;exitPerimeter=0;entryX=0;entryY=0.5;entryDx=0;entryDy=0;endArrow=open;endFill=0;endSize=16;" edge="1" parent="1" source="4iNGwqaxPTd7bF_QZf95-8" target="4iNGwqaxPTd7bF_QZf95-3">
          <mxGeometry relative="1" as="geometry" />
        </mxCell>
        <mxCell id="4iNGwqaxPTd7bF_QZf95-13" style="edgeStyle=orthogonalEdgeStyle;rounded=0;orthogonalLoop=1;jettySize=auto;html=1;exitX=0.5;exitY=1;exitDx=0;exitDy=0;exitPerimeter=0;entryX=0.5;entryY=1;entryDx=0;entryDy=0;endArrow=open;endFill=0;endSize=16;" edge="1" parent="1" source="4iNGwqaxPTd7bF_QZf95-8" target="4iNGwqaxPTd7bF_QZf95-4">
          <mxGeometry relative="1" as="geometry" />
        </mxCell>
      </root>
    </mxGraphModel>
  </diagram>
</mxfile>
